<svg width="32" height="32" viewBox="0 0 32 32" fill="none" xmlns="http://www.w3.org/2000/svg">
  <!-- Background -->
  <rect width="32" height="32" fill="#000000" rx="4"/>
  
  <!-- Racing car body -->
  <path d="M3 16L6 13H10L14 11H22L25 13H28L30 16L28 19H25L22 21H14L10 19H6L3 16Z" fill="#E30118"/>
  
  <!-- Car details -->
  <rect x="14" y="14" width="8" height="4" fill="#000000"/>
  <rect x="6" y="15" width="2" height="2" fill="#FDD900"/>
  <rect x="24" y="15" width="2" height="2" fill="#FDD900"/>
  
  <!-- Racing stripes -->
  <rect x="0" y="8" width="32" height="1" fill="#FDD900" opacity="0.6"/>
  <rect x="0" y="23" width="32" height="1" fill="#FDD900" opacity="0.6"/>
  
  <!-- Wheels -->
  <circle cx="8" cy="16" r="2.5" fill="#C0BFBF"/>
  <circle cx="24" cy="16" r="2.5" fill="#C0BFBF"/>
  <circle cx="8" cy="16" r="1" fill="#000000"/>
  <circle cx="24" cy="16" r="1" fill="#000000"/>
  
  <!-- Speed lines -->
  <rect x="1" y="12" width="4" height="1" fill="#FDD900" opacity="0.8"/>
  <rect x="1" y="19" width="4" height="1" fill="#FDD900" opacity="0.8"/>
</svg>